Coordinates
version=1
nRows=11
nColumns=63
inDegrees=yes

Units are S.I. units (second, meters, Newtons, ...)
If the header above contains a line with 'inDegrees', this indicates whether rotational values are in degrees (yes) or radians (no).

endheader
time	pelvis_tilt	pelvis_list	pelvis_rotation	pelvis_tx	pelvis_ty	pelvis_tz	hip_flexion_r	hip_adduction_r	hip_rotation_r	knee_angle_r	knee_angle_r_beta	ankle_angle_r	subtalar_angle_r	mtp_angle_r	hip_flexion_l	hip_adduction_l	hip_rotation_l	knee_angle_l	knee_angle_l_beta	ankle_angle_l	subtalar_angle_l	mtp_angle_l	L5_S1_Flex_Ext	L5_S1_Lat_Bending	L5_S1_axial_rotation	L4_L5_Flex_Ext	L4_L5_Lat_Bending	L4_L5_axial_rotation	L3_L4_Flex_Ext	L3_L4_Lat_Bending	L3_L4_axial_rotation	L2_L3_Flex_Ext	L2_L3_Lat_Bending	L2_L3_axial_rotation	L1_L2_Flex_Ext	L1_L2_Lat_Bending	L1_L2_axial_rotation	L1_T12_Flex_Ext	L1_T12_Lat_Bending	L1_T12_axial_rotation	Abs_r3	Abs_r2	Abs_r1	Abs_t1	Abs_t2	neck_flexion	neck_bending	neck_rotation	arm_flex_r	arm_add_r	arm_rot_r	elbow_flex_r	pro_sup_r	wrist_flex_r	wrist_dev_r	arm_flex_l	arm_add_l	arm_rot_l	elbow_flex_l	pro_sup_l	wrist_flex_l	wrist_dev_l
      0.00800000	    -52.93060462	      2.66490341	      5.13747334	     -0.35735728	      0.98398281	      0.03877188	     96.34202251	     -8.60645687	      0.37538924	     46.08035642	      0.80425394	     -6.33813221	     -1.77337187	      0.00000000	    117.17105697	     -4.49320466	      0.02571652	    111.11892825	      1.93939116	      4.46411152	     -3.70947675	      0.00000000	     -0.09576237	     -0.56376174	     -0.76326169	     -0.17784030	     -0.74980311	     -0.81096555	     -0.15732800	     -1.37073028	     -0.81096555	     -0.10944681	     -1.37073028	     -0.66785398	     -0.08892494	     -1.14962293	     -0.62015013	     -0.05471862	     -0.87326693	     -0.57244627	     -0.68402104	     -6.37738550	     -4.24503256	      0.00000000	      0.00000000	     -0.00000000	      0.00000000	      0.00000000	     67.03520657	     -5.95723862	     -6.25332870	     41.63220537	     47.89631323	      0.00000000	      5.46946361	     71.90162655	     -7.92797043	      4.04295237	     39.17685816	     53.23981707	      0.00000000	      5.46946361
      0.01700000	    -52.71817639	      3.18922480	      4.59918380	     -0.35590894	      0.98374020	      0.03864725	     93.63918248	     -8.24674055	     -0.10844707	     43.34093599	      0.75644203	     -7.28968652	     -1.02747132	      0.00000000	    119.30390674	     -5.08560993	      0.06353011	    113.27188994	      1.97696743	      5.20549536	     -4.23691572	      0.00000000	     -0.09504124	     -0.63301410	     -0.65671392	     -0.17650109	     -0.84190876	     -0.69775854	     -0.15614326	     -1.53911049	     -0.69775854	     -0.10862264	     -1.53911049	     -0.57462468	     -0.08825530	     -1.29084236	     -0.53358006	     -0.05430657	     -0.98053885	     -0.49253544	     -0.67887009	     -7.16078214	     -3.65244581	      0.00000000	      0.00000000	     -0.00000000	      0.00000000	      0.00000000	     66.80091085	     -6.10426529	     -6.33291745	     41.17664641	     47.86228794	      0.00000000	      5.45634122	     71.51148629	     -7.87634131	      4.12935120	     39.64346614	     53.23404910	      0.00000000	      5.45634122
      0.02500000	    -52.69703327	      3.51020507	      4.60037557	     -0.35579580	      0.98363334	      0.03863792	     92.99565593	     -8.35509078	     -0.33545278	     42.79529501	      0.74691880	     -7.42612520	     -1.14571678	      0.00000000	    119.96939106	     -5.21393447	     -0.15857283	    113.61250449	      1.98291227	      5.05425609	     -4.19961120	      0.00000000	     -0.09546073	     -0.68016726	     -0.65443203	     -0.17728013	     -0.90462245	     -0.69533403	     -0.15683244	     -1.65375867	     -0.69533403	     -0.10910207	     -1.65375867	     -0.57262803	     -0.08864484	     -1.38699707	     -0.53172603	     -0.05454626	     -1.05357908	     -0.49082402	     -0.68186648	     -7.69418803	     -3.63975464	      0.00000000	      0.00000000	     -0.00000000	      0.00000000	      0.00000000	     66.71989896	     -6.14771130	     -6.28933129	     41.11961476	     47.85841625	      0.00000000	      5.45129696	     71.55195676	     -7.82948335	      4.20085704	     39.55895620	     53.24595831	      0.00000000	      5.45129696
      0.03300000	    -52.68633781	      4.04794995	      4.51640507	     -0.35571751	      0.98349786	      0.03876663	     92.33408721	     -8.42048535	     -0.52118757	     42.23027411	      0.73705733	     -7.62864145	     -1.40225902	      0.00000000	    120.70108989	     -5.51761448	     -0.55590892	    113.95577655	      1.98890350	      4.80941839	     -4.17202183	      0.00000000	     -0.09509011	     -0.75581509	     -0.63335630	     -0.17659185	     -1.00523407	     -0.67294107	     -0.15622354	     -1.83768881	     -0.67294107	     -0.10867849	     -1.83768881	     -0.55418676	     -0.08830068	     -1.54125813	     -0.51460200	     -0.05433449	     -1.17075757	     -0.47501723	     -0.67921915	     -8.54993145	     -3.52253775	      0.00000000	      0.00000000	     -0.00000000	      0.00000000	      0.00000000	     66.60230719	     -6.17274823	     -6.27584958	     41.07691122	     47.84451579	      0.00000000	      5.44421667	     71.69136543	     -7.81811830	      4.44355854	     39.39028707	     53.27227342	      0.00000000	      5.44421667
      0.04200000	    -52.68083829	      4.83322409	      4.40851578	     -0.35559561	      0.98335727	      0.03920378	     91.71707306	     -8.43259771	     -0.38599681	     41.77496641	      0.72911071	     -8.01621133	     -1.90339309	      0.00000000	    121.46090523	     -6.02112023	     -1.19275137	    114.28286829	      1.99461233	      4.44224325	     -4.31679765	      0.00000000	     -0.09375196	     -0.86924967	     -0.60382134	     -0.17410677	     -1.15610206	     -0.64156017	     -0.15402510	     -2.11349365	     -0.64156017	     -0.10714912	     -2.11349365	     -0.52834367	     -0.08705807	     -1.77257393	     -0.49060484	     -0.05356987	     -1.34646774	     -0.45286600	     -0.66966091	     -9.83312613	     -3.35827314	      0.00000000	      0.00000000	     -0.00000000	      0.00000000	      0.00000000	     66.36828528	     -6.15905193	     -6.40353973	     41.09688075	     47.80275616	      0.00000000	      5.43326291	     71.99081747	     -7.88983019	      5.13402523	     39.03481451	     53.36812519	      0.00000000	      5.43326291
      0.05000000	    -52.74270164	      6.01522437	      4.38409323	     -0.35567386	      0.98337261	      0.03975892	     91.22679432	     -8.44635440	      0.49015737	     41.36944455	      0.72203302	     -8.53455303	     -2.77385512	      0.00000000	    122.18019215	     -6.68313584	     -2.34130945	    114.45893018	      1.99768519	      3.98376824	     -4.87870721	      0.00000000	     -0.09377285	     -1.03632572	     -0.59212925	     -0.17414555	     -1.37831321	     -0.62913732	     -0.15405941	     -2.51972235	     -0.62913732	     -0.10717299	     -2.51972235	     -0.51811309	     -0.08707746	     -2.11327541	     -0.48110501	     -0.05358180	     -1.60526854	     -0.44409693	     -0.66981006	    -11.72312381	     -3.29324522	      0.00000000	      0.00000000	     -0.00000000	      0.00000000	      0.00000000	     66.08687682	     -5.93730782	     -7.08885533	     41.26001867	     47.65182867	      0.00000000	      5.40810377	     72.58739966	     -8.29856243	      6.98250630	     38.50777111	     53.64932605	      0.00000000	      5.40810377
      0.05800000	    -52.74746066	      6.52442101	      4.36928403	     -0.35569242	      0.98336013	      0.03957049	     90.44108573	     -8.61470040	      0.33661608	     40.85219119	      0.71300524	     -8.44543782	     -2.91664681	      0.00000000	    123.10834292	     -6.98387862	     -2.79113917	    114.67775436	      2.00150439	      3.87922438	     -4.80952509	      0.00000000	     -0.09534334	     -1.10630370	     -0.58897670	     -0.17706212	     -1.47138392	     -0.62578775	     -0.15663958	     -2.68986681	     -0.62578775	     -0.10896791	     -2.68986681	     -0.51535461	     -0.08853583	     -2.25597450	     -0.47854357	     -0.05447919	     -1.71366443	     -0.44173253	     -0.68102797	    -12.51472867	     -3.27571172	      0.00000000	      0.00000000	     -0.00000000	      0.00000000	      0.00000000	     66.02922978	     -5.91929578	     -7.14294405	     41.21538627	     47.63516457	      0.00000000	      5.40438399	     72.71334967	     -8.32510257	      7.15577334	     38.49378843	     53.67742068	      0.00000000	      5.40438399
      0.06700000	    -52.81530985	      7.72712744	      4.34839847	     -0.35581149	      0.98347734	      0.04007704	     89.94863176	     -8.69103411	      1.32023052	     40.57321652	      0.70813622	     -8.51823555	     -3.24420784	      0.00000000	    123.82859810	     -7.73673253	     -3.96139341	    114.73694203	      2.00253741	      3.57331620	     -5.12879869	      0.00000000	     -0.09714090	     -1.27605629	     -0.57762017	     -0.18040036	     -1.69715487	     -0.61372144	     -0.15959278	     -3.10260327	     -0.61372144	     -0.11102233	     -3.10260327	     -0.50541765	     -0.09020504	     -2.60213399	     -0.46931639	     -0.05550631	     -1.97661120	     -0.43321513	     -0.69386772	    -14.43500400	     -3.21255013	      0.00000000	      0.00000000	     -0.00000000	      0.00000000	      0.00000000	     65.76695712	     -5.62477987	     -8.03703849	     41.42273795	     47.43908618	      0.00000000	      5.37578880	     73.38932817	     -8.73659202	      9.00504476	     38.03197320	     53.97646178	      0.00000000	      5.37578880
      0.07500000	    -52.86423513	      8.13265280	      4.32417966	     -0.35592163	      0.98368113	      0.03974202	     89.20971636	     -8.82082110	      1.30257571	     40.16939187	      0.70108815	     -8.36786496	     -3.35186758	      0.00000000	    124.78043419	     -8.04562246	     -4.37594706	    114.75373705	      2.00283054	      3.55325152	     -5.02428136	      0.00000000	     -0.09523984	     -1.33075821	     -0.57685422	     -0.17686992	     -1.76990842	     -0.61290761	     -0.15646954	     -3.23560551	     -0.61290761	     -0.10884962	     -3.23560551	     -0.50474744	     -0.08843972	     -2.71368214	     -0.46869406	     -0.05442005	     -2.06134447	     -0.43264067	     -0.68028869	    -15.05380303	     -3.20829013	      0.00000000	      0.00000000	     -0.00000000	      0.00000000	      0.00000000	     65.72413016	     -5.61169355	     -8.08759606	     41.43705024	     47.42230031	      0.00000000	      5.37226837	     73.47347238	     -8.77043014	      9.12531895	     38.02676221	     53.99840466	      0.00000000	      5.37226837
      0.08300000	    -52.92840231	      8.61123892	      4.29140951	     -0.35616063	      0.98398645	      0.03954052	     88.54857913	     -8.90855209	      1.57991471	     39.86642856	      0.69580044	     -8.12886022	     -3.48355238	      0.00000000	    125.66405705	     -8.41393838	     -4.86893389	    114.63047633	      2.00067924	      3.53836765	     -4.86911521	      0.00000000	     -0.09624421	     -1.39686525	     -0.57286214	     -0.17873511	     -1.85783078	     -0.60866602	     -0.15811960	     -3.39633817	     -0.60866602	     -0.10999750	     -3.39633817	     -0.50125437	     -0.08937237	     -2.84848762	     -0.46545049	     -0.05499394	     -2.16374427	     -0.42964660	     -0.68746273	    -15.80161907	     -3.18608736	      0.00000000	      0.00000000	     -0.00000000	      0.00000000	      0.00000000	     65.66681713	     -5.56905717	     -8.26147821	     41.53801292	     47.38676449	      0.00000000	      5.36777733	     73.68002642	     -8.82568629	      9.37549729	     37.99313527	     54.04118417	      0.00000000	      5.36777733
      0.09200000	    -52.99782329	      8.76075418	      4.24729109	     -0.35652606	      0.98425221	      0.03910814	     88.01997689	     -8.95950471	      1.68916470	     39.92279550	      0.69678423	     -8.08894212	     -3.51991513	      0.00000000	    126.59221434	     -8.59463823	     -5.09962091	    114.41907900	      1.99698966	      3.67083496	     -4.82745841	      0.00000000	     -0.09426345	     -1.41653568	     -0.57164487	     -0.17505665	     -1.88399245	     -0.60737268	     -0.15486542	     -3.44416485	     -0.60737268	     -0.10773370	     -3.44416485	     -0.50018926	     -0.08753304	     -2.88859956	     -0.46446146	     -0.05386213	     -2.19421377	     -0.42873365	     -0.67331439	    -16.02413492	     -3.17931728	      0.00000000	      0.00000000	     -0.00000000	      0.00000000	      0.00000000	     65.71890863	     -5.56301621	     -8.31971606	     41.57530358	     47.37688410	      0.00000000	      5.36693060	     73.78757945	     -8.85117639	      9.43008769	     38.00615554	     54.05041042	      0.00000000	      5.36693060
